<?xml version="1.0" standalone="no"?>
<!DOCTYPE svg PUBLIC "-//W3C//DTD SVG 20010904//EN"
 "http://www.w3.org/TR/2001/REC-SVG-20010904/DTD/svg10.dtd">
<svg version="1.0" xmlns="http://www.w3.org/2000/svg"
 width="900.000000pt" height="900.000000pt" viewBox="0 0 900.000000 900.000000"
 preserveAspectRatio="xMidYMid meet">

<g transform="translate(0.000000,900.000000) scale(0.100000,-0.100000)"
fill="#000000" stroke="none">
<path d="M5378 7303 c7 -3 16 -2 19 1 4 3 -2 6 -13 5 -11 0 -14 -3 -6 -6z"/>
<path d="M5443 7303 c9 -2 23 -2 30 0 6 3 -1 5 -18 5 -16 0 -22 -2 -12 -5z"/>
<path d="M4790 7293 c19 -3 41 -10 49 -16 12 -9 13 -9 8 0 -6 10 25 13 130 16
118 2 112 3 -42 3 -99 1 -164 -1 -145 -3z"/>
<path d="M4345 7270 c-218 -22 -310 -41 -435 -87 -222 -83 -450 -221 -700
-424 -275 -223 -504 -592 -600 -965 -27 -104 -31 -142 -46 -444 -9 -182 -14
-333 -11 -337 7 -6 325 11 332 19 3 3 0 50 -5 105 -17 167 10 383 75 599 128
421 330 683 764 990 237 168 445 231 799 241 111 3 200 8 197 11 -3 3 -26 5
-50 3 -31 -1 -45 2 -45 11 0 8 -3 9 -8 3 -10 -14 -49 -18 -56 -6 -4 5 -1 13 5
17 8 4 9 3 5 -4 -4 -7 -2 -12 3 -12 6 0 11 9 11 19 0 11 5 23 11 27 8 4 7 9
-2 15 -12 7 -12 9 0 9 7 0 11 6 8 15 -4 8 -2 17 3 20 6 4 10 -1 10 -9 0 -9 5
-16 10 -16 6 0 10 6 9 13 -4 21 12 77 22 77 6 0 7 6 3 13 -4 6 5 1 19 -12 15
-14 27 -20 27 -14 0 6 -7 14 -16 17 -8 3 -12 11 -9 16 5 8 12 7 23 -2 14 -10
15 -10 5 2 -15 17 -17 34 -3 25 5 -3 17 -2 26 3 15 8 15 10 0 15 -10 4 -25 -2
-37 -14 -11 -11 -25 -17 -30 -13 -6 4 -16 0 -21 -7 -8 -12 -9 -11 -5 1 2 8 11
15 21 15 18 0 38 24 30 37 -3 4 2 5 11 2 18 -7 61 26 46 36 -21 12 -222 7
-396 -10z m119 -228 c3 -5 -1 -9 -9 -9 -8 0 -12 4 -9 9 3 4 7 8 9 8 2 0 6 -4
9 -8z m20 -54 c-3 -4 -9 -8 -15 -8 -5 0 -9 4 -9 8 0 5 7 9 15 9 8 0 12 -4 9
-9z"/>
<path d="M4861 7264 c0 -11 3 -14 6 -6 3 7 2 16 -1 19 -3 4 -6 -2 -5 -13z"/>
<path d="M4789 7253 c-13 -16 -12 -17 4 -4 16 13 21 21 13 21 -2 0 -10 -8 -17
-17z"/>
<path d="M4740 7240 c0 -5 5 -10 11 -10 5 0 7 5 4 10 -3 6 -8 10 -11 10 -2 0
-4 -4 -4 -10z"/>
<path d="M4806 7222 c-3 -5 1 -9 9 -9 8 0 12 4 9 9 -3 4 -7 8 -9 8 -2 0 -6 -4
-9 -8z"/>
<path d="M4769 7173 c-13 -16 -12 -17 4 -4 9 7 17 15 17 17 0 8 -8 3 -21 -13z"/>
<path d="M4768 7132 c4 -10 7 -12 10 -4 2 7 9 9 15 5 7 -3 8 -2 4 2 -14 16
-36 14 -29 -3z"/>
<path d="M4666 7123 c-6 -14 -5 -15 5 -6 7 7 10 15 7 18 -3 3 -9 -2 -12 -12z"/>
<path d="M4730 7125 c0 -8 4 -15 8 -15 5 0 9 7 9 15 0 8 -4 15 -9 15 -4 0 -8
-7 -8 -15z"/>
<path d="M4637 7110 c-3 -11 -1 -20 4 -20 5 0 9 9 9 20 0 11 -2 20 -4 20 -2 0
-6 -9 -9 -20z"/>
<path d="M4715 7080 c-10 -11 -14 -20 -10 -20 5 0 0 -7 -11 -15 -16 -13 -16
-14 -1 -9 11 4 17 1 17 -10 0 -9 5 -16 10 -16 7 0 7 7 2 18 -12 26 -9 47 8 47
8 0 14 -8 14 -18 -2 -14 1 -15 12 -6 17 14 18 30 2 27 -7 -2 -12 3 -10 10 3
18 -13 15 -33 -8z"/>
<path d="M4618 7063 c-10 -3 -15 -10 -11 -19 7 -18 20 -18 38 0 16 16 3 25
-27 19z"/>
<path d="M4933 6983 c26 -2 67 -2 90 0 23 2 2 3 -48 3 -49 0 -68 -1 -42 -3z"/>
<path d="M4396 6391 c-3 -4 -17 -6 -31 -3 -15 2 -25 0 -25 -8 0 -6 -8 -9 -18
-6 -21 7 -150 -27 -201 -53 -106 -54 -161 -90 -224 -150 -75 -71 -196 -217
-267 -323 l-45 -67 -257 -1 -256 0 -45 -134 -45 -133 82 -7 c44 -4 137 -9 206
-11 69 -3 134 -8 145 -11 16 -4 17 -3 5 5 -10 7 -11 11 -2 11 6 0 12 4 12 9 0
5 -9 7 -20 4 -24 -6 -26 9 -5 27 13 11 14 10 9 -3 -4 -12 -1 -14 16 -10 19 5
20 3 14 -21 -4 -15 -2 -26 4 -26 6 0 9 16 7 35 -2 26 2 39 16 49 10 7 16 16
11 21 -4 5 -2 5 5 2 6 -4 14 -1 16 5 3 8 6 6 6 -5 1 -10 -9 -21 -21 -26 -14
-5 -17 -10 -10 -15 7 -4 12 -13 12 -19 0 -7 -4 -6 -11 3 -7 10 -9 11 -7 2 5
-20 22 -17 34 7 6 11 29 34 52 51 23 17 42 33 42 36 0 4 -6 1 -14 -5 -10 -8
-15 -9 -18 -1 -2 6 -13 2 -26 -10 -12 -11 -22 -17 -22 -13 0 4 12 18 28 31 15
13 22 21 15 18 -18 -9 -25 10 -9 24 12 9 17 7 26 -10 12 -22 30 -19 30 6 0 8
-4 13 -9 9 -5 -3 -12 -1 -16 5 -3 5 1 10 9 10 8 0 19 -7 24 -17 9 -14 10 -14
16 5 7 19 23 27 49 23 16 -3 49 27 38 34 -6 3 -11 1 -11 -5 0 -6 -4 -8 -10 -5
-22 13 -9 26 19 20 25 -5 33 -2 47 21 19 28 26 64 12 64 -4 0 -8 4 -8 8 0 4 9
8 19 8 11 0 18 -3 15 -7 -2 -4 2 -9 10 -12 10 -4 12 0 9 14 -3 10 -10 19 -17
19 -6 0 -5 4 3 9 7 5 27 5 42 1 37 -11 37 -5 0 13 -22 11 -32 12 -41 3 -8 -8
-10 -7 -5 7 8 18 17 22 29 10 12 -13 64 -10 59 3 -2 7 5 15 16 19 13 4 18 11
14 22 -5 13 -2 15 16 10 19 -5 22 -2 18 14 -5 17 -3 18 10 7 14 -12 15 -11 5
9 -10 19 -9 20 8 16 11 -3 17 -10 13 -16 -3 -6 -1 -7 6 -3 6 4 9 11 6 16 -3 4
1 13 9 19 15 12 16 28 3 48 -4 6 -3 15 3 18 6 4 9 1 8 -7 -2 -8 6 -13 20 -12
20 1 21 -1 7 -16 -8 -9 -15 -23 -14 -31 0 -11 2 -11 7 1 16 34 45 69 53 64 5
-3 6 2 3 11 -7 17 14 75 27 75 5 0 9 -4 9 -10 0 -5 -4 -10 -10 -10 -5 0 -10
-5 -10 -11 0 -5 5 -7 10 -4 13 8 13 -1 0 -26 -6 -10 -8 -19 -6 -19 3 0 12 12
20 28 8 15 26 39 40 54 14 15 22 29 17 32 -15 10 -19 45 -6 56 10 8 15 8 21
-1 4 -7 3 -9 -4 -5 -6 3 -13 2 -17 -4 -3 -5 -1 -10 5 -10 6 0 8 -6 4 -12 -4
-7 -4 -10 1 -6 4 4 17 3 29 -3 18 -9 19 -8 5 3 -11 9 -14 19 -8 33 7 19 8 19
8 1 1 -15 4 -16 16 -6 20 17 19 30 -2 30 -15 0 -16 2 -3 10 9 6 17 5 22 -3 5
-8 8 -7 8 5 0 9 -8 22 -17 27 -17 10 -17 10 0 11 9 0 17 -6 18 -12 0 -7 4 -3
9 10 5 12 14 22 20 22 6 0 8 -4 5 -10 -3 -6 1 -7 9 -4 9 3 14 10 11 14 -7 11
22 6 32 -5 4 -4 3 -5 -4 -1 -6 3 -14 2 -18 -4 -3 -5 3 -10 14 -10 15 0 21 6
21 21 0 13 4 18 12 13 7 -4 8 -3 4 4 -4 7 -3 12 3 12 5 0 11 -5 13 -11 2 -7 9
-5 17 5 12 14 12 16 -4 10 -13 -5 -16 -4 -11 4 4 7 3 12 -3 12 -5 0 -12 -4
-15 -9z m-234 -205 c10 -7 15 -16 11 -19 -10 -11 -25 -8 -18 3 3 6 -1 10 -9
10 -8 0 -18 5 -21 10 -9 14 17 12 37 -4z m-70 -48 c-8 -8 -9 -4 -5 13 4 13 8
18 11 10 2 -7 -1 -18 -6 -23z m-114 -82 c-7 -8 -15 -12 -17 -11 -5 6 10 25 20
25 5 0 4 -6 -3 -14z m42 -21 c0 -11 -29 -11 -33 -1 -4 10 1 12 14 9 10 -3 19
-7 19 -8z m-76 -29 c-3 -9 -12 -12 -22 -9 -15 6 -9 11 25 22 1 1 0 -5 -3 -13z
m-40 -37 c-10 -12 -18 -23 -16 -25 7 -11 0 -24 -13 -24 -8 0 -15 7 -15 16 0
10 5 14 16 10 9 -3 12 -2 9 5 -4 6 1 17 11 24 27 21 30 18 8 -6z m-130 -165
c7 -19 -17 -35 -34 -22 -12 8 -11 8 5 3 16 -5 18 -4 8 6 -7 7 -13 16 -13 19 0
12 29 7 34 -6z m-59 -25 c-4 -5 1 -9 9 -9 8 0 18 -4 21 -10 4 -6 -2 -7 -17 -1
-13 4 -25 16 -26 26 -3 11 0 15 7 10 6 -3 9 -11 6 -16z m-40 -38 c-3 -6 3 -14
12 -20 10 -6 13 -11 8 -11 -13 0 -35 20 -35 32 0 4 5 8 11 8 5 0 8 -4 4 -9z
m-39 -26 c-11 -8 -25 -15 -30 -15 -6 1 0 7 14 15 32 19 40 18 16 0z"/>
<path d="M4325 6320 c-4 -6 3 -10 14 -10 25 0 27 6 6 13 -8 4 -17 2 -20 -3z"/>
<path d="M4294 6295 c3 -8 2 -15 -3 -15 -4 0 -13 -12 -20 -26 -11 -25 -11 -25
19 5 17 17 29 35 25 41 -10 16 -28 12 -21 -5z"/>
<path d="M3910 5909 c0 -5 5 -7 10 -4 6 3 10 8 10 11 0 2 -4 4 -10 4 -5 0 -10
-5 -10 -11z"/>
<path d="M2573 4829 c4 -45 11 -87 17 -94 6 -7 8 -19 5 -27 -3 -8 1 -21 9 -28
9 -7 13 -17 9 -24 -4 -7 -1 -7 7 1 11 10 11 15 -1 29 -12 16 -12 17 4 11 12
-4 17 -1 17 11 0 13 2 14 9 4 7 -11 9 -11 14 2 7 18 -13 22 -29 6 -6 -6 -10
-3 -11 10 -1 11 2 18 7 15 5 -3 12 -1 15 5 4 6 16 8 27 4 14 -4 18 -3 13 6 -4
7 -18 9 -34 6 -14 -3 -20 -3 -13 0 6 3 12 10 12 15 0 6 -4 7 -10 4 -5 -3 -10
2 -10 13 0 26 51 76 80 80 21 2 20 0 -9 -15 -37 -19 -51 -40 -26 -40 8 0 15 7
15 15 0 11 3 12 14 3 11 -9 15 -7 21 11 15 44 13 58 -7 58 -12 0 -17 -4 -12
-12 6 -10 4 -10 -7 0 -7 7 -39 12 -72 12 l-60 0 6 -81z"/>
<path d="M2652 4800 c8 -12 23 -20 38 -19 14 0 19 3 12 6 -6 2 -10 9 -6 14 3
5 2 9 -3 10 -4 0 -18 2 -31 5 -20 3 -21 2 -10 -16z"/>
</g>
</svg>
